<svg xmlns="http://www.w3.org/2000/svg" xmlns:xlink="http://www.w3.org/1999/xlink" width="367" zoomAndPan="magnify" viewBox="0 0 275.25 103.5" height="138" preserveAspectRatio="xMidYMid meet" version="1.0"><defs><g/><clipPath id="c0cefa2206"><path d="M 0.289062 0 L 274.214844 0 L 274.214844 103.003906 L 0.289062 103.003906 Z M 0.289062 0 " clip-rule="nonzero"/></clipPath></defs><g clip-path="url(#c0cefa2206)"><path fill="#ffffff" d="M 0.289062 0 L 274.214844 0 L 274.214844 103.003906 L 0.289062 103.003906 Z M 0.289062 0 " fill-opacity="1" fill-rule="nonzero"/></g><g fill="#004aad" fill-opacity="1"><g transform="translate(19.439153, 65.868169)"><g><path d="M 15.09375 -28.15625 C 16.65625 -28.15625 18.195312 -27.972656 19.71875 -27.609375 C 21.25 -27.253906 22.390625 -26.898438 23.140625 -26.546875 L 24.25 -26.015625 L 21.171875 -19.828125 C 19.035156 -20.960938 17.007812 -21.53125 15.09375 -21.53125 C 14.019531 -21.53125 13.257812 -21.414062 12.8125 -21.1875 C 12.375 -20.957031 12.15625 -20.523438 12.15625 -19.890625 C 12.15625 -19.742188 12.171875 -19.597656 12.203125 -19.453125 C 12.242188 -19.316406 12.316406 -19.1875 12.421875 -19.0625 C 12.523438 -18.9375 12.617188 -18.828125 12.703125 -18.734375 C 12.796875 -18.648438 12.945312 -18.550781 13.15625 -18.4375 C 13.375 -18.332031 13.546875 -18.253906 13.671875 -18.203125 C 13.796875 -18.148438 14 -18.070312 14.28125 -17.96875 C 14.570312 -17.863281 14.785156 -17.78125 14.921875 -17.71875 C 15.066406 -17.664062 15.304688 -17.585938 15.640625 -17.484375 C 15.984375 -17.378906 16.242188 -17.304688 16.421875 -17.265625 C 17.523438 -16.953125 18.484375 -16.597656 19.296875 -16.203125 C 20.117188 -15.816406 20.984375 -15.285156 21.890625 -14.609375 C 22.796875 -13.929688 23.492188 -13.078125 23.984375 -12.046875 C 24.484375 -11.015625 24.734375 -9.84375 24.734375 -8.53125 C 24.734375 -2.3125 20.414062 0.796875 11.78125 0.796875 C 9.820312 0.796875 7.960938 0.492188 6.203125 -0.109375 C 4.453125 -0.710938 3.1875 -1.316406 2.40625 -1.921875 L 1.21875 -2.875 L 5.0625 -9.328125 C 5.34375 -9.078125 5.710938 -8.78125 6.171875 -8.4375 C 6.640625 -8.101562 7.476562 -7.644531 8.6875 -7.0625 C 9.894531 -6.476562 10.941406 -6.1875 11.828125 -6.1875 C 13.785156 -6.1875 14.765625 -6.84375 14.765625 -8.15625 C 14.765625 -8.757812 14.515625 -9.226562 14.015625 -9.5625 C 13.523438 -9.90625 12.679688 -10.289062 11.484375 -10.71875 C 10.296875 -11.144531 9.363281 -11.535156 8.6875 -11.890625 C 6.976562 -12.773438 5.625 -13.773438 4.625 -14.890625 C 3.632812 -16.015625 3.140625 -17.503906 3.140625 -19.359375 C 3.140625 -22.128906 4.210938 -24.285156 6.359375 -25.828125 C 8.515625 -27.378906 11.425781 -28.15625 15.09375 -28.15625 Z M 15.09375 -28.15625 "/></g></g></g><g fill="#004aad" fill-opacity="1"><g transform="translate(41.129373, 65.868169)"><g><path d="M 3.203125 0 L 3.203125 -27.34375 L 12.640625 -27.34375 L 12.640625 -24.46875 L 12.734375 -24.46875 C 15.191406 -26.925781 17.804688 -28.15625 20.578125 -28.15625 C 22.566406 -28.15625 24.429688 -27.742188 26.171875 -26.921875 C 27.910156 -26.109375 29.226562 -24.847656 30.125 -23.140625 C 32.894531 -26.484375 35.914062 -28.15625 39.1875 -28.15625 C 42.101562 -28.15625 44.609375 -27.335938 46.703125 -25.703125 C 48.796875 -24.066406 49.84375 -21.503906 49.84375 -18.015625 L 49.84375 0 L 40.40625 0 L 40.40625 -15.453125 C 40.40625 -16.910156 40.003906 -18.128906 39.203125 -19.109375 C 38.410156 -20.085938 37.210938 -20.578125 35.609375 -20.578125 C 34.222656 -20.578125 33.164062 -20.160156 32.4375 -19.328125 C 31.707031 -18.492188 31.304688 -17.488281 31.234375 -16.3125 L 31.234375 0 L 21.8125 0 L 21.8125 -15.453125 C 21.8125 -16.910156 21.410156 -18.128906 20.609375 -19.109375 C 19.804688 -20.085938 18.601562 -20.578125 17 -20.578125 C 15.550781 -20.578125 14.460938 -20.125 13.734375 -19.21875 C 13.003906 -18.3125 12.640625 -17.238281 12.640625 -16 L 12.640625 0 Z M 3.203125 0 "/></g></g></g><g fill="#004aad" fill-opacity="1"><g transform="translate(89.094593, 65.868169)"><g><path d="M 5.0625 -3.390625 C 2.5 -6.179688 1.21875 -9.597656 1.21875 -13.640625 C 1.21875 -17.691406 2.5 -21.125 5.0625 -23.9375 C 7.625 -26.75 10.878906 -28.15625 14.828125 -28.15625 C 18.453125 -28.15625 21.4375 -27.015625 23.78125 -24.734375 L 23.78125 -27.34375 L 33.21875 -27.34375 L 33.21875 0 L 23.890625 0 L 23.890625 -3.09375 L 23.78125 -3.09375 C 21.4375 -0.5 18.453125 0.796875 14.828125 0.796875 C 10.878906 0.796875 7.625 -0.597656 5.0625 -3.390625 Z M 13.078125 -18.28125 C 11.859375 -17.070312 11.25 -15.523438 11.25 -13.640625 C 11.25 -11.765625 11.832031 -10.226562 13 -9.03125 C 14.175781 -7.84375 15.722656 -7.25 17.640625 -7.25 C 19.492188 -7.25 21.015625 -7.851562 22.203125 -9.0625 C 23.390625 -10.269531 23.984375 -11.796875 23.984375 -13.640625 C 23.984375 -15.523438 23.367188 -17.070312 22.140625 -18.28125 C 20.921875 -19.488281 19.421875 -20.09375 17.640625 -20.09375 C 15.828125 -20.09375 14.304688 -19.488281 13.078125 -18.28125 Z M 13.078125 -18.28125 "/></g></g></g><g fill="#004aad" fill-opacity="1"><g transform="translate(120.964379, 65.868169)"><g><path d="M 3.203125 0 L 3.203125 -27.34375 L 12.640625 -27.34375 L 12.640625 -23.40625 L 12.734375 -23.40625 C 12.804688 -23.550781 12.921875 -23.726562 13.078125 -23.9375 C 13.242188 -24.144531 13.59375 -24.515625 14.125 -25.046875 C 14.65625 -25.585938 15.222656 -26.070312 15.828125 -26.5 C 16.429688 -26.925781 17.210938 -27.304688 18.171875 -27.640625 C 19.140625 -27.984375 20.117188 -28.15625 21.109375 -28.15625 C 22.140625 -28.15625 23.148438 -28.007812 24.140625 -27.71875 C 25.140625 -27.4375 25.875 -27.15625 26.34375 -26.875 L 27.078125 -26.4375 L 23.140625 -18.453125 C 21.960938 -19.441406 20.328125 -19.9375 18.234375 -19.9375 C 17.097656 -19.9375 16.117188 -19.6875 15.296875 -19.1875 C 14.484375 -18.695312 13.90625 -18.09375 13.5625 -17.375 C 13.226562 -16.664062 12.988281 -16.0625 12.84375 -15.5625 C 12.707031 -15.070312 12.640625 -14.679688 12.640625 -14.390625 L 12.640625 0 Z M 3.203125 0 "/></g></g></g><g fill="#004aad" fill-opacity="1"><g transform="translate(142.974374, 65.868169)"><g><path d="M 4.796875 -27.34375 L 4.796875 -37.53125 L 14.234375 -37.53125 L 14.234375 -27.34375 L 20 -27.34375 L 20 -20.15625 L 14.234375 -20.15625 L 14.234375 -11.46875 C 14.234375 -8.9375 14.941406 -7.671875 16.359375 -7.671875 C 16.722656 -7.671875 17.097656 -7.742188 17.484375 -7.890625 C 17.878906 -8.035156 18.179688 -8.175781 18.390625 -8.3125 L 18.71875 -8.53125 L 21.0625 -0.90625 C 19.03125 0.226562 16.71875 0.796875 14.125 0.796875 C 12.351562 0.796875 10.828125 0.488281 9.546875 -0.125 C 8.265625 -0.75 7.296875 -1.585938 6.640625 -2.640625 C 5.984375 -3.691406 5.507812 -4.789062 5.21875 -5.9375 C 4.9375 -7.09375 4.796875 -8.332031 4.796875 -9.65625 L 4.796875 -20.15625 L 0.859375 -20.15625 L 0.859375 -27.34375 Z M 4.796875 -27.34375 "/></g></g></g><g fill="#004aad" fill-opacity="1"><g transform="translate(159.494858, 65.868169)"><g><path d="M 1.96875 6.71875 L 9.703125 2.9375 C 11.117188 5.28125 13.585938 6.453125 17.109375 6.453125 C 18.742188 6.453125 20.265625 5.925781 21.671875 4.875 C 23.078125 3.832031 23.78125 2.222656 23.78125 0.046875 L 23.78125 -1.96875 C 22.101562 -0.125 19.117188 0.796875 14.828125 0.796875 C 10.878906 0.796875 7.625 -0.597656 5.0625 -3.390625 C 2.5 -6.179688 1.21875 -9.597656 1.21875 -13.640625 C 1.21875 -17.691406 2.5 -21.125 5.0625 -23.9375 C 7.625 -26.75 10.878906 -28.15625 14.828125 -28.15625 C 18.335938 -28.15625 21.269531 -27.066406 23.625 -24.890625 L 23.78125 -24.890625 L 23.78125 -27.34375 L 33.21875 -27.34375 L 33.21875 0.75 C 33.21875 5.1875 31.738281 8.613281 28.78125 11.03125 C 25.832031 13.445312 21.941406 14.65625 17.109375 14.65625 C 9.296875 14.65625 4.25 12.007812 1.96875 6.71875 Z M 13.078125 -18.28125 C 11.859375 -17.070312 11.25 -15.523438 11.25 -13.640625 C 11.25 -11.765625 11.832031 -10.226562 13 -9.03125 C 14.175781 -7.84375 15.722656 -7.25 17.640625 -7.25 C 19.492188 -7.25 21.015625 -7.851562 22.203125 -9.0625 C 23.390625 -10.269531 23.984375 -11.796875 23.984375 -13.640625 C 23.984375 -15.523438 23.367188 -17.070312 22.140625 -18.28125 C 20.921875 -19.488281 19.421875 -20.09375 17.640625 -20.09375 C 15.828125 -20.09375 14.304688 -19.488281 13.078125 -18.28125 Z M 13.078125 -18.28125 "/></g></g></g><g fill="#004aad" fill-opacity="1"><g transform="translate(191.364643, 65.868169)"><g><path d="M 3.203125 0 L 3.203125 -45.84375 L 12.640625 -45.84375 L 12.640625 0 Z M 3.203125 0 "/></g></g></g><g fill="#004aad" fill-opacity="1"><g transform="translate(202.662106, 65.868169)"><g><path d="M 5.78125 -3.25 C 2.738281 -5.945312 1.21875 -9.410156 1.21875 -13.640625 C 1.21875 -17.878906 2.800781 -21.359375 5.96875 -24.078125 C 9.132812 -26.796875 13.046875 -28.15625 17.703125 -28.15625 C 22.285156 -28.15625 26.148438 -26.785156 29.296875 -24.046875 C 32.441406 -21.304688 34.015625 -17.835938 34.015625 -13.640625 C 34.015625 -9.453125 32.476562 -6 29.40625 -3.28125 C 26.332031 -0.5625 22.429688 0.796875 17.703125 0.796875 C 12.796875 0.796875 8.820312 -0.550781 5.78125 -3.25 Z M 13.078125 -18.28125 C 11.859375 -17.070312 11.25 -15.523438 11.25 -13.640625 C 11.25 -11.765625 11.832031 -10.226562 13 -9.03125 C 14.175781 -7.84375 15.722656 -7.25 17.640625 -7.25 C 19.492188 -7.25 21.015625 -7.851562 22.203125 -9.0625 C 23.390625 -10.269531 23.984375 -11.796875 23.984375 -13.640625 C 23.984375 -15.523438 23.367188 -17.070312 22.140625 -18.28125 C 20.921875 -19.488281 19.421875 -20.09375 17.640625 -20.09375 C 15.828125 -20.09375 14.304688 -19.488281 13.078125 -18.28125 Z M 13.078125 -18.28125 "/></g></g></g><g fill="#004aad" fill-opacity="1"><g transform="translate(233.359386, 65.868169)"><g><path d="M 4.796875 -27.34375 L 4.796875 -37.53125 L 14.234375 -37.53125 L 14.234375 -27.34375 L 20 -27.34375 L 20 -20.15625 L 14.234375 -20.15625 L 14.234375 -11.46875 C 14.234375 -8.9375 14.941406 -7.671875 16.359375 -7.671875 C 16.722656 -7.671875 17.097656 -7.742188 17.484375 -7.890625 C 17.878906 -8.035156 18.179688 -8.175781 18.390625 -8.3125 L 18.71875 -8.53125 L 21.0625 -0.90625 C 19.03125 0.226562 16.71875 0.796875 14.125 0.796875 C 12.351562 0.796875 10.828125 0.488281 9.546875 -0.125 C 8.265625 -0.75 7.296875 -1.585938 6.640625 -2.640625 C 5.984375 -3.691406 5.507812 -4.789062 5.21875 -5.9375 C 4.9375 -7.09375 4.796875 -8.332031 4.796875 -9.65625 L 4.796875 -20.15625 L 0.859375 -20.15625 L 0.859375 -27.34375 Z M 4.796875 -27.34375 "/></g></g></g><path stroke-linecap="butt" transform="matrix(0.746394, 0, 0, 0.746394, 5.745137, 91.80299)" fill="none" stroke-linejoin="miter" d="M 0.00128188 5.000261 L 84.43325 5.000261 " stroke="#004aad" stroke-width="10" stroke-opacity="1" stroke-miterlimit="4"/><path stroke-linecap="butt" transform="matrix(0, 0.746394, -0.746394, 0, 13.205252, 35.481393)" fill="none" stroke-linejoin="miter" d="M -0.00123799 5.000838 L 82.462936 5.000838 " stroke="#004aad" stroke-width="10" stroke-opacity="1" stroke-miterlimit="4"/><path stroke-linecap="butt" transform="matrix(-0.746394, 0, 0, -0.746394, 268.675343, 11.046825)" fill="none" stroke-linejoin="miter" d="M -0.000587798 4.99792 L 84.43138 4.99792 " stroke="#004aad" stroke-width="10" stroke-opacity="1" stroke-miterlimit="4"/><path stroke-linecap="butt" transform="matrix(0, -0.746394, 0.746394, 0, 261.215979, 67.368428)" fill="none" stroke-linejoin="miter" d="M 0.00166204 5.0017 L 82.465836 5.0017 " stroke="#004aad" stroke-width="10" stroke-opacity="1" stroke-miterlimit="4"/></svg>